<?xml version="1.0" standalone="no"?>
<!DOCTYPE svg PUBLIC "-//W3C//DTD SVG 20010904//EN"
 "http://www.w3.org/TR/2001/REC-SVG-20010904/DTD/svg10.dtd">
<svg version="1.0" xmlns="http://www.w3.org/2000/svg"
 width="341.000000pt" height="341.000000pt" viewBox="0 0 341.000000 341.000000"
 preserveAspectRatio="xMidYMid meet">
<metadata>
Created by potrace 1.14, written by Peter Selinger 2001-2017
</metadata>
<g transform="translate(0.000000,341.000000) scale(0.100000,-0.100000)"
fill="#000000" stroke="none">
<path d="M1607 3405 c-1 -2 -31 -5 -67 -8 -506 -47 -974 -331 -1259 -767 -61
-91 -154 -289 -190 -399 -30 -92 -65 -254 -76 -356 -7 -57 -7 -285 -1 -330 3
-16 8 -52 12 -80 3 -27 8 -59 10 -70 2 -11 6 -32 9 -46 3 -14 16 -66 31 -115
154 -532 554 -952 1078 -1133 64 -22 116 -38 116 -36 0 3 12 0 28 -6 66 -26
277 -52 417 -53 81 0 220 13 300 29 22 4 48 9 57 11 100 17 307 94 428 157
494 261 836 761 896 1312 10 87 10 313 1 380 -4 28 -9 68 -12 90 -7 49 -39
178 -66 265 -21 63 -132 299 -167 351 -180 275 -377 459 -642 602 -246 133
-493 196 -793 201 -59 2 -108 2 -110 1z m216 -870 c173 -18 388 -133 510 -272
124 -142 202 -332 210 -514 22 -499 -382 -902 -878 -876 -308 16 -560 179
-702 453 -183 351 -84 800 227 1039 130 100 278 158 450 178 31 3 107 0 183
-8z"/>
</g>
</svg>
